<?xml version="1.0" encoding="UTF-8"?>
<!DOCTYPE svg PUBLIC "-//W3C//DTD SVG 1.1//EN" "http://www.w3.org/Graphics/SVG/1.1/DTD/svg11.dtd">
<svg xmlns="http://www.w3.org/2000/svg" version="1.1" width="16px" height="16px" style="shape-rendering:geometricPrecision; text-rendering:geometricPrecision; image-rendering:optimizeQuality; fill-rule:evenodd; clip-rule:evenodd" xmlns:xlink="http://www.w3.org/1999/xlink">
<g><path style="opacity:1" fill="#4890cc" d="M 15.5,5.5 C 15.5,7.16667 15.5,8.83333 15.5,10.5C 14.5275,12.1392 13.1942,13.4726 11.5,14.5C 10.8571,12.9236 9.85706,11.5903 8.5,10.5C 8.83333,9.83333 9.16667,9.16667 9.5,8.5C 8.5,8.5 7.5,8.5 6.5,8.5C 6.83333,9.16667 7.16667,9.83333 7.5,10.5C 6.14294,11.5903 5.14294,12.9236 4.5,14.5C -0.806609,10.1245 -0.806609,5.62451 4.5,1C 9.56172,-0.607417 13.2284,0.892583 15.5,5.5 Z"/></g>
<g><path style="opacity:1" fill="#000000" d="M 6.5,8.5 C 4.66298,8.36055 4.32964,7.69388 5.5,6.5C 6.29755,6.95689 6.63088,7.62356 6.5,8.5 Z"/></g>
<g><path style="opacity:1" fill="#000000" d="M 9.5,8.5 C 9.63945,6.66298 10.3061,6.32964 11.5,7.5C 11.0431,8.29755 10.3764,8.63088 9.5,8.5 Z"/></g>
<g><path style="opacity:1" fill="#f2af79" d="M 6.5,8.5 C 7.5,8.5 8.5,8.5 9.5,8.5C 9.16667,9.16667 8.83333,9.83333 8.5,10.5C 8.16667,10.5 7.83333,10.5 7.5,10.5C 7.16667,9.83333 6.83333,9.16667 6.5,8.5 Z"/></g>
<g><path style="opacity:1" fill="#ece7e4" d="M 7.5,10.5 C 7.83333,10.5 8.16667,10.5 8.5,10.5C 9.85706,11.5903 10.8571,12.9236 11.5,14.5C 11.5,14.8333 11.5,15.1667 11.5,15.5C 10.8333,15.5 10.1667,15.5 9.5,15.5C 8.5,14.1667 7.5,14.1667 6.5,15.5C 5.83333,15.5 5.16667,15.5 4.5,15.5C 4.5,15.1667 4.5,14.8333 4.5,14.5C 5.14294,12.9236 6.14294,11.5903 7.5,10.5 Z"/></g>
</svg>
